<?xml version="1.0" standalone="no"?>
<!DOCTYPE svg PUBLIC "-//W3C//DTD SVG 20010904//EN"
 "http://www.w3.org/TR/2001/REC-SVG-20010904/DTD/svg10.dtd">
<svg version="1.0" xmlns="http://www.w3.org/2000/svg"
 width="512.000000pt" height="512.000000pt" viewBox="0 0 512.000000 512.000000"
 preserveAspectRatio="xMidYMid meet">
<metadata>
Created by potrace 1.14, written by Peter Selinger 2001-2017
</metadata>
<g transform="translate(0.000000,512.000000) scale(0.100000,-0.100000)"
fill="#000000" stroke="none">
<path d="M2349 5095 c-3 -3 -66 -12 -140 -19 -74 -8 -153 -19 -176 -25 -87
-22 -129 -33 -183 -45 -52 -12 -65 -16 -117 -37 -13 -5 -33 -13 -45 -18 -13
-5 -39 -16 -60 -25 -20 -9 -41 -16 -46 -16 -6 0 -42 -16 -81 -35 -38 -19 -75
-35 -81 -35 -6 0 -30 -13 -53 -28 -23 -16 -68 -41 -99 -57 -32 -15 -58 -32
-58 -35 0 -4 -17 -16 -37 -25 -34 -16 -96 -60 -131 -92 -7 -7 -17 -13 -21 -13
-4 0 -24 -15 -44 -32 -20 -18 -52 -44 -71 -58 -20 -14 -38 -33 -41 -42 -4 -10
-11 -18 -17 -18 -14 0 -186 -174 -243 -245 -22 -28 -46 -56 -53 -63 -6 -7 -12
-17 -12 -21 0 -3 -15 -22 -34 -41 -18 -19 -43 -54 -55 -77 -12 -24 -25 -43
-30 -43 -4 0 -14 -12 -22 -27 -8 -16 -16 -30 -19 -33 -3 -3 -18 -31 -34 -62
-16 -32 -32 -58 -37 -58 -5 0 -9 -6 -9 -14 0 -7 -23 -58 -50 -112 -28 -54 -50
-104 -50 -111 0 -7 -9 -28 -20 -48 -11 -20 -20 -42 -20 -50 0 -15 -4 -24 -27
-70 -6 -12 -14 -41 -18 -65 -4 -25 -11 -49 -15 -55 -4 -5 -10 -23 -13 -40 -12
-62 -19 -91 -27 -110 -8 -19 -18 -98 -42 -320 -21 -188 -14 -358 26 -640 16
-113 24 -151 36 -180 5 -11 11 -31 14 -45 16 -79 28 -128 38 -150 6 -14 14
-34 18 -45 4 -11 17 -40 29 -63 11 -24 21 -51 21 -60 0 -15 18 -55 57 -127 6
-11 19 -38 29 -60 11 -22 31 -58 45 -80 15 -22 30 -51 34 -64 4 -14 16 -34 26
-45 11 -11 19 -25 19 -32 0 -6 7 -14 15 -17 8 -4 21 -21 28 -39 8 -18 31 -51
51 -72 20 -22 36 -43 36 -47 0 -4 6 -14 13 -21 7 -7 30 -35 52 -63 22 -27 49
-58 60 -67 11 -10 25 -22 30 -29 47 -52 148 -149 155 -149 5 0 11 -8 14 -18 3
-9 23 -28 43 -42 21 -13 46 -32 56 -42 9 -9 45 -36 80 -60 34 -23 68 -48 75
-55 8 -7 28 -21 44 -29 17 -9 49 -29 71 -45 22 -16 44 -29 49 -29 5 0 28 -13
51 -28 23 -15 56 -34 72 -41 17 -7 43 -19 58 -27 16 -8 35 -14 43 -14 8 0 14
-3 14 -8 0 -8 40 -26 80 -37 14 -3 35 -10 48 -16 12 -5 33 -13 47 -19 14 -5
37 -15 53 -21 15 -7 36 -15 47 -20 11 -4 45 -12 75 -18 87 -16 114 -22 135
-31 97 -40 560 -72 745 -51 52 6 136 15 185 20 50 6 110 15 135 21 25 6 59 14
75 17 17 3 35 9 40 13 6 4 35 11 65 15 53 7 62 10 107 33 13 7 29 12 38 12 8
0 29 8 48 19 18 10 47 22 65 25 17 4 61 23 99 42 37 18 76 34 86 34 9 0 17 5
17 10 0 6 5 10 11 10 6 0 23 8 37 19 15 10 56 33 90 51 35 18 66 39 69 46 3 8
13 14 22 14 16 0 38 15 100 67 14 13 30 23 34 23 9 0 84 60 150 120 21 19 46
39 55 44 19 11 121 115 182 187 25 29 54 62 65 73 11 12 28 34 38 49 18 27 26
38 75 95 12 15 25 35 28 46 6 17 23 42 52 71 6 8 12 18 12 24 0 6 4 11 9 11 5
0 12 13 16 29 3 15 14 37 23 47 10 11 26 37 35 59 18 40 44 93 64 130 18 32
43 92 43 102 0 9 32 82 50 115 6 10 10 25 10 33 0 8 4 23 10 33 5 9 14 37 19
62 5 25 15 63 21 85 21 74 30 120 40 195 6 41 15 111 21 155 26 190 -8 758
-51 860 -5 11 -11 31 -14 45 -17 86 -28 127 -36 142 -6 10 -10 24 -10 31 0 12
-28 78 -49 117 -5 9 -12 31 -16 50 -4 18 -15 48 -25 65 -29 51 -36 66 -67 130
-15 33 -31 62 -35 63 -5 2 -8 10 -8 18 0 8 -4 14 -9 14 -5 0 -11 12 -14 28 -3
15 -15 37 -26 49 -12 12 -21 27 -21 32 0 5 -8 16 -17 23 -10 7 -26 29 -36 48
-10 20 -31 50 -47 67 -17 18 -30 36 -30 40 0 4 -13 23 -29 41 -16 18 -44 52
-62 77 -19 24 -42 47 -51 50 -10 4 -18 10 -18 15 0 11 -119 129 -185 185 -27
22 -56 47 -65 56 -9 8 -48 38 -86 65 -38 27 -78 57 -88 66 -11 10 -29 21 -40
24 -12 4 -33 17 -48 30 -15 12 -52 34 -82 48 -30 14 -58 30 -61 36 -3 5 -23
17 -43 25 -20 9 -50 23 -65 31 -16 8 -35 14 -43 14 -8 0 -14 3 -14 8 0 9 -43
28 -85 38 -16 4 -43 15 -60 24 -16 9 -50 22 -75 30 -25 7 -49 16 -55 19 -5 3
-35 11 -65 18 -30 6 -73 16 -95 23 -84 24 -124 32 -245 46 -126 16 -560 30
-571 19z m385 -315 c139 -11 275 -28 311 -39 17 -4 50 -14 75 -21 25 -6 52
-15 60 -20 9 -4 36 -11 60 -15 24 -4 51 -11 60 -15 8 -4 26 -12 40 -18 14 -5
45 -19 70 -30 25 -12 57 -24 73 -28 15 -3 27 -10 27 -15 0 -5 6 -9 13 -9 18 0
67 -23 67 -32 0 -3 13 -9 29 -13 16 -3 37 -15 47 -26 9 -10 22 -19 27 -19 6 0
24 -10 41 -23 17 -12 43 -28 57 -36 14 -7 39 -24 54 -37 15 -13 31 -24 34 -24
4 0 27 -18 51 -40 24 -22 47 -40 51 -40 4 0 20 -12 37 -27 16 -16 40 -37 53
-49 13 -11 49 -48 80 -81 31 -33 65 -66 75 -74 11 -8 32 -33 47 -56 15 -24 31
-43 36 -43 4 0 16 -16 27 -35 10 -19 21 -35 24 -35 3 0 23 -29 45 -65 22 -36
43 -65 48 -65 4 0 7 -5 7 -10 0 -6 9 -20 19 -31 11 -12 22 -32 26 -47 3 -14
19 -44 36 -68 16 -23 29 -48 29 -54 0 -7 20 -53 44 -104 24 -50 47 -107 50
-126 7 -34 18 -65 37 -102 5 -10 9 -27 9 -37 0 -11 5 -23 10 -26 6 -3 10 -17
10 -31 0 -13 4 -32 10 -42 5 -9 14 -55 19 -102 6 -47 18 -146 27 -220 20 -174
14 -303 -29 -605 -7 -49 -16 -97 -19 -105 -3 -8 -16 -49 -29 -90 -12 -41 -26
-79 -30 -85 -3 -5 -10 -27 -13 -49 -4 -21 -11 -46 -16 -55 -4 -9 -18 -38 -31
-66 -13 -27 -27 -52 -30 -55 -4 -3 -10 -22 -14 -43 -4 -20 -11 -37 -16 -37 -5
0 -9 -6 -9 -14 0 -8 -3 -16 -7 -18 -5 -2 -21 -30 -38 -63 -16 -33 -32 -62 -36
-65 -3 -3 -23 -31 -43 -62 -20 -32 -40 -58 -45 -58 -5 0 -16 17 -25 38 -10 20
-24 48 -32 62 -8 14 -22 42 -32 62 -9 21 -20 38 -24 38 -4 0 -10 16 -14 35 -3
19 -10 35 -14 35 -4 0 -18 21 -31 48 -13 26 -26 49 -30 52 -3 3 -9 18 -13 35
-4 16 -11 32 -14 35 -11 8 -62 106 -62 118 0 6 -13 30 -28 54 -15 24 -36 61
-46 83 -11 22 -25 51 -33 65 -8 14 -17 33 -20 43 -3 9 -9 17 -14 17 -5 0 -9 7
-9 15 0 8 -4 15 -9 15 -5 0 -12 15 -15 34 -4 19 -10 36 -14 38 -7 3 -62 109
-62 120 0 3 -18 36 -40 72 -22 36 -40 69 -40 73 0 9 -14 36 -50 98 -26 45 -41
75 -61 123 -8 17 -17 32 -21 32 -5 0 -8 9 -8 20 0 11 -4 20 -10 20 -5 0 -12
16 -16 35 -3 19 -9 35 -13 35 -4 0 -16 17 -27 38 -11 20 -25 46 -31 57 -7 11
-34 65 -61 120 -69 140 -96 189 -104 193 -4 2 -10 19 -14 38 -3 19 -10 34 -15
34 -5 0 -9 6 -9 14 0 8 -4 16 -8 18 -9 4 -62 110 -62 126 0 6 -3 12 -7 14 -5
2 -33 53 -65 113 -31 61 -63 124 -72 140 -9 17 -16 35 -16 42 0 6 -3 13 -7 15
-5 2 -19 24 -32 51 -13 26 -27 47 -31 47 -4 0 -11 16 -14 35 -4 19 -11 35 -16
35 -6 0 -10 9 -10 20 0 11 -3 20 -8 20 -4 0 -13 15 -21 33 -19 45 -34 76 -58
118 -30 52 -40 70 -59 109 -54 112 -67 137 -80 160 -9 14 -18 33 -21 43 -3 9
-9 17 -14 17 -5 0 -9 9 -9 20 0 11 -4 20 -9 20 -5 0 -12 12 -16 27 -3 15 -14
38 -24 52 -10 14 -24 41 -32 59 -8 17 -17 32 -21 32 -3 0 -9 13 -13 30 -4 16
-11 32 -16 35 -5 4 -9 15 -9 26 0 18 4 20 32 14 17 -4 77 -11 132 -15z m-204
4 c0 -3 -12 -26 -27 -52 -39 -70 -66 -124 -82 -165 -8 -20 -18 -37 -21 -37 -3
0 -12 -16 -20 -35 -8 -19 -17 -35 -21 -35 -5 0 -11 -16 -15 -35 -3 -19 -10
-35 -15 -35 -5 0 -9 -7 -9 -15 0 -8 -3 -15 -8 -15 -4 0 -13 -15 -20 -32 -19
-47 -49 -106 -76 -153 -13 -23 -27 -52 -31 -65 -4 -14 -21 -44 -36 -67 -16
-23 -29 -47 -29 -53 0 -6 -12 -32 -27 -58 -39 -70 -66 -124 -82 -165 -8 -20
-18 -37 -23 -37 -4 0 -8 -7 -8 -15 0 -8 -4 -15 -10 -15 -5 0 -10 -6 -10 -12 0
-12 -50 -118 -60 -128 -3 -3 -10 -16 -16 -30 -25 -56 -56 -117 -78 -155 -13
-23 -27 -52 -31 -65 -4 -14 -20 -43 -35 -65 -14 -22 -34 -58 -44 -80 -18 -42
-20 -46 -54 -110 -11 -22 -29 -58 -38 -80 -10 -22 -20 -42 -23 -45 -13 -11
-46 -74 -72 -137 -8 -18 -16 -33 -20 -33 -3 0 -12 -17 -20 -37 -8 -20 -24 -55
-36 -77 -12 -23 -42 -79 -66 -126 -24 -47 -53 -103 -64 -125 -12 -22 -28 -53
-36 -70 -8 -16 -26 -52 -41 -80 -14 -27 -26 -56 -26 -62 0 -7 -4 -13 -10 -13
-5 0 -10 -7 -10 -15 0 -9 -9 -25 -20 -37 -11 -12 -20 -30 -20 -40 0 -10 -4
-18 -10 -18 -5 0 -10 -5 -10 -11 0 -12 -31 -81 -40 -89 -3 -3 -18 -32 -34 -65
-16 -33 -34 -69 -40 -80 -5 -11 -33 -65 -61 -120 -28 -55 -56 -109 -63 -120
-6 -11 -17 -33 -25 -50 -25 -53 -62 -120 -69 -125 -3 -3 -10 -19 -14 -35 -4
-17 -10 -32 -13 -35 -3 -3 -11 -14 -17 -24 -13 -24 -34 -33 -34 -14 0 15 -69
121 -82 126 -4 2 -8 11 -8 20 0 10 -9 31 -20 47 -12 17 -30 50 -41 75 -11 25
-38 81 -59 125 -21 44 -42 96 -46 115 -6 32 -10 41 -34 90 -6 11 -10 31 -10
44 0 14 -4 27 -9 30 -9 6 -14 26 -37 156 -41 237 -45 292 -40 490 6 210 13
299 26 315 4 6 11 41 15 79 4 38 11 79 15 90 4 12 13 41 20 66 12 45 25 81 40
111 5 9 12 34 16 55 4 22 15 54 26 72 10 18 18 37 18 43 0 6 8 23 19 37 10 15
22 42 26 60 3 17 11 32 16 32 5 0 9 7 9 15 0 9 9 25 20 37 10 11 22 33 25 48
3 15 15 36 25 48 11 11 36 46 56 79 21 32 40 60 44 63 4 3 16 19 26 36 55 90
323 363 405 411 16 9 31 25 34 34 3 9 17 20 30 23 13 3 36 18 50 32 14 14 39
30 55 36 17 5 30 14 30 19 0 5 5 9 11 9 6 0 24 9 40 21 45 32 222 119 242 119
9 0 17 4 17 8 0 5 19 15 43 22 23 8 44 17 47 20 7 9 109 40 131 40 10 0 21 5
24 10 3 6 19 10 35 10 16 0 32 5 35 10 3 6 17 10 30 10 13 0 34 4 47 10 49 20
458 60 458 44z m68 -675 c24 -46 55 -106 69 -134 13 -27 31 -61 39 -75 8 -14
22 -42 32 -62 9 -21 20 -38 24 -38 5 0 8 -5 8 -11 0 -13 31 -82 40 -89 3 -3
14 -23 24 -45 9 -22 22 -49 28 -60 11 -19 73 -136 122 -231 12 -22 27 -57 35
-77 8 -20 18 -37 23 -37 4 0 8 -7 8 -15 0 -8 5 -15 10 -15 6 0 10 -9 10 -20 0
-11 4 -20 9 -20 5 0 12 -12 16 -27 3 -15 14 -38 24 -52 9 -14 30 -53 45 -86
16 -33 34 -69 40 -80 6 -11 29 -56 52 -100 22 -44 53 -101 67 -127 15 -26 27
-54 27 -62 0 -9 4 -16 8 -16 5 0 14 -16 22 -35 8 -19 17 -35 22 -35 4 0 8 -9
8 -20 0 -11 5 -20 10 -20 6 0 10 -6 10 -12 0 -7 7 -26 16 -43 41 -74 64 -121
64 -128 0 -5 13 -27 28 -50 16 -23 36 -60 46 -82 9 -22 22 -49 28 -60 26 -44
58 -110 58 -118 0 -5 13 -27 28 -50 16 -23 36 -60 46 -82 9 -22 24 -51 32 -65
8 -14 36 -68 62 -120 27 -52 53 -104 60 -115 13 -22 36 -76 36 -88 1 -8 -2754
-10 -2762 -2 -5 5 23 71 50 120 14 25 39 74 70 140 26 55 50 97 59 105 3 3 13
26 23 53 10 26 21 47 25 47 4 0 13 16 21 35 8 19 17 35 22 35 4 0 8 8 8 18 0
17 6 31 53 114 15 26 27 51 27 56 0 6 18 39 40 75 21 36 42 78 46 94 4 15 14
37 23 48 17 20 39 63 63 123 7 17 15 32 19 32 3 0 11 16 19 35 8 19 17 35 21
35 5 0 11 16 15 35 3 19 10 35 15 35 5 0 9 5 9 11 0 6 14 30 30 54 17 24 30
50 30 57 0 7 7 27 16 43 9 17 40 75 69 130 28 55 57 109 63 120 6 11 17 34 25
50 7 17 24 48 37 70 41 71 50 90 50 108 0 9 5 17 10 17 6 0 10 7 10 15 0 8 5
15 10 15 6 0 10 9 10 20 0 11 5 20 10 20 6 0 10 4 10 10 0 17 34 90 42 90 5 0
8 5 8 11 0 6 9 23 19 38 11 15 23 40 27 57 4 16 11 34 16 41 5 6 29 49 52 95
23 46 52 101 64 123 11 22 27 54 35 70 16 35 56 105 67 120 4 6 11 25 15 43 4
18 12 31 18 29 7 -2 32 -42 55 -88z m1742 -2892 c0 -14 -36 -57 -48 -57 -4 0
-16 -15 -27 -32 -10 -18 -53 -67 -95 -109 -43 -42 -79 -80 -81 -85 -2 -5 -14
-16 -25 -24 -27 -19 -165 -130 -182 -147 -7 -7 -16 -13 -20 -13 -4 0 -20 -11
-36 -25 -16 -14 -49 -35 -73 -47 -24 -12 -43 -25 -43 -30 0 -4 -9 -8 -20 -8
-11 0 -20 -4 -20 -9 0 -7 -173 -96 -237 -122 -13 -5 -34 -13 -48 -19 -14 -5
-36 -14 -50 -20 -14 -5 -35 -14 -47 -20 -22 -9 -82 -25 -138 -36 -14 -3 -34
-9 -45 -14 -50 -21 -237 -48 -410 -59 -126 -8 -339 -5 -380 5 -11 3 -67 11
-125 19 -58 7 -123 18 -145 25 -22 7 -55 14 -73 17 -18 3 -35 9 -38 14 -3 5
-14 9 -24 9 -22 0 -98 24 -150 47 -77 34 -96 42 -120 49 -14 3 -27 9 -30 13
-10 12 -50 31 -65 31 -8 0 -15 4 -15 9 0 5 -13 12 -29 16 -16 3 -37 15 -47 26
-9 10 -22 19 -27 19 -6 0 -25 11 -43 25 -18 14 -37 25 -43 25 -10 0 -18 6 -73
53 -12 9 -25 17 -30 17 -5 0 -21 12 -36 28 -15 15 -40 35 -56 46 -68 43 -376
360 -376 386 0 7 614 10 1785 10 1466 0 1785 -2 1785 -13z"/>
</g>
</svg>
